<svg width="41" height="40" viewBox="0 0 41 40" fill="none" xmlns="http://www.w3.org/2000/svg">
<path fill-rule="evenodd" clip-rule="evenodd" d="M21.2062 29.8813C23.9861 29.8813 25.8862 28.3441 25.8862 25.9308C25.8862 23.5536 24.3724 21.8737 21.3465 21.8737H16.4205V29.8813H21.2062ZM20.7142 18.9371C23.4925 18.9371 25.1466 17.2949 25.1466 14.9867C25.1466 12.6439 23.4232 11.1067 20.5723 11.1067H16.4205V18.9371H20.7142ZM21.1005 8.09961C25.8499 8.09961 28.6298 10.8968 28.6298 14.8111C28.6298 17.4705 27.0814 19.3571 24.9007 20.161C27.75 20.8615 29.4041 23.3781 29.4041 26.1408C29.4041 30.0552 26.2725 32.8884 21.6998 32.8884H12.9736V8.09961H21.1005Z" fill="#FEFEFE"/>
<path fill-rule="evenodd" clip-rule="evenodd" d="M37.7324 40H2.51747C1.12915 40 0 38.8762 0 37.4982V2.50349C0 1.12214 1.12915 0 2.51747 0H37.7324C39.1207 0 40.2499 1.12214 40.2499 2.50349V35.9004H39.3518V2.50349C39.3518 1.61595 38.6255 0.892462 37.7324 0.892462H2.51747C1.62439 0.892462 0.899687 1.61595 0.899687 2.50349V37.4982C0.899687 38.3857 1.62439 39.1075 2.51747 39.1075H37.7324C38.6255 39.1075 39.3518 38.3857 39.3518 37.4982V35.9004H40.2499V37.4982C40.2499 38.8762 39.1207 40 37.7324 40Z" fill="#FEFEFE"/>
</svg>
