<svg width="1549" height="932" viewBox="0 0 1549 932" fill="none" xmlns="http://www.w3.org/2000/svg">
<path opacity="0.4" d="M95.5183 246.508C186.101 219.598 225.283 240.458 252.457 330.159C279.632 419.86 258.566 458.66 167.984 485.57C77.4019 512.481 38.2198 491.62 11.0451 401.919C-16.1296 312.219 4.93604 273.418 95.5183 246.508Z" fill="url(#paint0_linear)"/>
<g style="mix-blend-mode:lighten" opacity="0.4">
<path d="M296.996 295.813C313.238 349.427 300.647 372.618 246.506 388.703C192.365 404.787 168.945 392.319 152.703 338.704C136.461 285.09 149.052 261.899 203.193 245.815C257.334 229.73 280.753 242.199 296.996 295.813Z" fill="url(#paint1_linear)"/>
</g>
<g style="mix-blend-mode:lighten">
<path d="M407.407 82.5278C400.703 87.6925 395.732 89.7267 391.344 89.1852C386.959 88.6442 382.651 85.4689 377.438 78.8336C372.223 72.1964 370.176 67.2824 370.721 62.9476C371.267 58.6093 374.474 54.3399 381.179 49.1742C387.883 44.0096 392.854 41.9754 397.242 42.5169C401.627 43.0579 405.935 46.2331 411.148 52.8685C416.363 59.5057 418.41 64.4196 417.865 68.7545C417.319 73.0927 414.112 77.3621 407.407 82.5278Z" stroke="#00C7F1" stroke-width="2.9979"/>
</g>
<g style="mix-blend-mode:lighten" opacity="0.4">
<path d="M918.091 896.068C864.17 929.046 835.153 922.272 801.851 868.876C768.55 815.479 775.39 786.745 829.311 753.768C883.232 720.79 912.249 727.564 945.551 780.96C978.852 834.357 972.012 863.091 918.091 896.068Z" fill="url(#paint2_linear)"/>
</g>
<g style="mix-blend-mode:lighten" opacity="0.8">
<path d="M782.8 854.186C775.86 853.821 771.935 852.442 769.718 850.002C767.506 847.566 766.538 843.566 766.906 836.699C767.275 829.828 768.666 825.957 771.119 823.772C773.575 821.584 777.617 820.623 784.56 820.988C791.501 821.354 795.426 822.732 797.642 825.172C799.855 827.609 800.823 831.609 800.454 838.476C800.085 845.347 798.695 849.218 796.242 851.403C793.785 853.591 789.743 854.552 782.8 854.186Z" stroke="url(#paint3_linear)" stroke-width="4.03237"/>
</g>
<g style="mix-blend-mode:lighten" opacity="0.3">
<path d="M1234.71 445.662C1185.34 475.851 1158.78 469.651 1128.29 420.769C1097.81 371.888 1104.07 345.583 1153.43 315.394C1202.79 285.205 1229.36 291.406 1259.84 340.288C1290.33 389.169 1284.07 415.474 1234.71 445.662Z" fill="url(#paint4_linear)"/>
</g>
<path opacity="0.7" d="M1189.85 285.816C1199.37 300.861 1202.74 311.803 1200.6 321.06C1198.46 330.324 1190.61 338.727 1175.41 348.163C1160.21 357.598 1149.15 360.948 1139.78 358.823C1130.42 356.7 1121.94 348.925 1112.41 333.883C1102.89 318.838 1099.52 307.896 1101.66 298.639C1103.8 289.375 1111.65 280.972 1126.85 271.536C1142.05 262.101 1153.11 258.752 1162.48 260.876C1171.84 262.999 1180.32 270.774 1189.85 285.816Z" stroke="url(#paint5_linear)" stroke-width="4.92188"/>
<path opacity="0.4" d="M1525.82 552.921C1535.34 567.967 1538.71 578.908 1536.57 588.166C1534.43 597.43 1526.58 605.833 1511.38 615.269C1496.18 624.704 1485.12 628.053 1475.75 625.928C1466.39 623.805 1457.9 616.03 1448.38 600.989C1438.86 585.943 1435.48 575.002 1437.63 565.744C1439.77 556.48 1447.62 548.077 1462.82 538.641C1478.02 529.207 1489.08 525.857 1498.45 527.982C1507.81 530.105 1516.29 537.88 1525.82 552.921Z" stroke="url(#paint6_linear)" stroke-width="4.92188"/>
<g style="mix-blend-mode:hard-light" opacity="0.3">
<path d="M988.629 39.7398C1000.05 77.4259 991.196 93.7274 953.139 105.033C915.083 116.339 898.621 107.575 887.204 69.8887C875.787 32.2025 884.637 15.9011 922.694 4.59523C960.75 -6.71062 977.212 2.05361 988.629 39.7398Z" fill="url(#paint7_linear)"/>
</g>
<g style="mix-blend-mode:lighten">
<path d="M940.545 103.314C935.504 103.048 932.618 102.047 930.979 100.243C929.343 98.4415 928.643 95.5009 928.911 90.5127C929.179 85.5223 930.19 82.6749 932.004 81.0591C933.82 79.441 936.792 78.7462 941.834 79.0117C946.875 79.2772 949.761 80.2788 951.4 82.0828C953.036 83.8841 953.736 86.8246 953.468 91.8129C953.2 96.8033 952.189 99.6506 950.375 101.266C948.559 102.885 945.587 103.579 940.545 103.314Z" stroke="url(#paint8_linear)" stroke-width="2.70563"/>
</g>
<g style="mix-blend-mode:lighten" opacity="0.3">
<path d="M545.802 280.916C518.61 277.187 510.706 266.913 514.154 239.741C517.603 212.569 527.79 204.765 554.982 208.494C582.175 212.223 590.079 222.497 586.63 249.669C583.182 276.841 572.995 284.645 545.802 280.916Z" fill="url(#paint9_linear)"/>
</g>
<defs>
<linearGradient id="paint0_linear" x1="0" y1="366.039" x2="263.502" y2="366.039" gradientUnits="userSpaceOnUse">
<stop stop-color="#63C1A0"/>
<stop offset="1" stop-color="#2575FC"/>
</linearGradient>
<linearGradient id="paint1_linear" x1="224.849" y1="239.277" x2="224.849" y2="395.24" gradientUnits="userSpaceOnUse">
<stop stop-color="#ECB32D"/>
<stop offset="1" stop-color="#63C1A0"/>
</linearGradient>
<linearGradient id="paint2_linear" x1="958.985" y1="802.289" x2="788.643" y2="848.38" gradientUnits="userSpaceOnUse">
<stop stop-color="#63C1A0"/>
<stop offset="1" stop-color="#2575FC"/>
</linearGradient>
<linearGradient id="paint3_linear" x1="802.196" y1="844.168" x2="765.248" y2="830.777" gradientUnits="userSpaceOnUse">
<stop offset="0.563536" stop-color="#00C7F1"/>
<stop offset="1" stop-color="#3BB2B8"/>
</linearGradient>
<linearGradient id="paint4_linear" x1="1209.17" y1="376.522" x2="1116.12" y2="401.699" gradientUnits="userSpaceOnUse">
<stop stop-color="#2575FC"/>
<stop offset="1" stop-color="#E01A59"/>
</linearGradient>
<linearGradient id="paint5_linear" x1="1137.77" y1="261.78" x2="1164.01" y2="358.051" gradientUnits="userSpaceOnUse">
<stop stop-color="#63C1A0"/>
<stop offset="1" stop-color="#2575FC"/>
</linearGradient>
<linearGradient id="paint6_linear" x1="1484.52" y1="567.658" x2="1500.17" y2="625.103" gradientUnits="userSpaceOnUse">
<stop stop-color="#2575FC"/>
<stop offset="1" stop-color="#E01A59"/>
</linearGradient>
<linearGradient id="paint7_linear" x1="937.917" y1="-2.3949e-06" x2="937.917" y2="109.628" gradientUnits="userSpaceOnUse">
<stop stop-color="#ECB32D"/>
<stop offset="1" stop-color="#E01A59"/>
</linearGradient>
<linearGradient id="paint8_linear" x1="954.622" y1="95.9368" x2="927.818" y2="86.2221" gradientUnits="userSpaceOnUse">
<stop stop-color="#00C7F1"/>
<stop offset="1" stop-color="#00BA7C"/>
</linearGradient>
<linearGradient id="paint9_linear" x1="557.143" y1="247.771" x2="515.352" y2="229.154" gradientUnits="userSpaceOnUse">
<stop stop-color="#2575FC"/>
<stop offset="1" stop-color="#E01A59"/>
</linearGradient>
</defs>
</svg>
