<svg width="650" height="650" viewBox="0 0 650 650" fill="none" xmlns="http://www.w3.org/2000/svg">
<path d="M367.5 322.001C367.5 346.025 348.024 365.501 324 365.501C299.976 365.501 280.5 346.025 280.5 322.001C280.5 297.977 299.976 278.501 324 278.501C348.024 278.501 367.5 297.977 367.5 322.001Z" stroke="url(#paint0_linear)"/>
<path d="M346.5 329.251C346.5 332.066 344.205 334.749 340.186 336.759C336.198 338.753 330.652 340.001 324.5 340.001C318.348 340.001 312.802 338.753 308.814 336.759C304.795 334.749 302.5 332.066 302.5 329.251C302.5 326.436 304.795 323.753 308.814 321.743C312.802 319.749 318.348 318.501 324.5 318.501C330.652 318.501 336.198 319.749 340.186 321.743C344.205 323.753 346.5 326.436 346.5 329.251Z" fill="#000000" stroke="url(#paint1_linear)"/>
<path d="M346.5 321.751C346.5 324.566 344.205 327.249 340.186 329.259C336.198 331.253 330.652 332.501 324.5 332.501C318.348 332.501 312.802 331.253 308.814 329.259C304.795 327.249 302.5 324.566 302.5 321.751C302.5 318.936 304.795 316.253 308.814 314.243C312.802 312.249 318.348 311.001 324.5 311.001C330.652 311.001 336.198 312.249 340.186 314.243C344.205 316.253 346.5 318.936 346.5 321.751Z" fill="#000000" stroke="url(#paint2_linear)"/>
<path d="M346.5 314.251C346.5 317.066 344.205 319.749 340.186 321.759C336.198 323.753 330.652 325.001 324.5 325.001C318.348 325.001 312.802 323.753 308.814 321.759C304.795 319.749 302.5 317.066 302.5 314.251C302.5 311.436 304.795 308.753 308.814 306.743C312.802 304.749 318.348 303.501 324.5 303.501C330.652 303.501 336.198 304.749 340.186 306.743C344.205 308.753 346.5 311.436 346.5 314.251Z" fill="#000000" stroke="url(#paint3_linear)"/>
<g opacity="0.3">
<path fill-rule="evenodd" clip-rule="evenodd" d="M283.459 277.731C257.153 300.94 254.634 341.223 277.842 367.528C301.05 393.834 341.333 396.354 367.639 373.145C393.945 349.937 396.465 309.654 373.256 283.348C350.048 257.043 309.765 254.523 283.459 277.731ZM368.796 374.457C341.768 398.303 300.378 395.715 276.53 368.686C252.684 341.657 255.274 300.266 282.302 276.42C309.33 252.574 350.722 255.163 374.568 282.191C398.415 309.221 395.825 350.611 368.796 374.457ZM267.627 260.816C231.469 292.717 227.808 347.861 259.464 383.741C291.121 419.623 346.292 422.863 382.45 390.962C418.608 359.061 422.269 303.917 390.612 268.035C358.956 232.154 303.785 228.914 267.627 260.816ZM383.602 392.268C346.719 424.809 290.44 421.504 258.148 384.903C225.856 348.301 229.591 292.05 266.475 259.509C303.358 226.969 359.636 230.272 391.928 266.874C424.22 303.475 420.486 359.727 383.602 392.268ZM251.414 242.438C205.68 282.787 201.299 352.819 241.647 398.552C281.997 444.287 352.029 448.667 397.763 408.318C443.496 367.969 447.877 297.937 407.528 252.203C367.179 206.47 297.147 202.089 251.414 242.438ZM398.919 409.629C352.463 450.615 281.323 446.166 240.336 399.709C199.351 353.253 203.801 282.114 250.257 241.128C296.713 200.141 367.853 204.591 408.838 251.046C449.825 297.503 445.375 368.643 398.919 409.629ZM236.604 224.624C181.018 273.665 175.494 358.559 224.291 413.868C273.086 469.175 358.006 474.273 413.593 425.232C469.179 376.19 474.703 291.296 425.908 235.989C377.111 180.68 292.191 175.582 236.604 224.624ZM414.746 426.539C358.437 476.218 272.409 471.056 222.977 415.027C173.545 358.998 179.142 272.996 235.451 223.316C291.76 173.637 377.789 178.801 427.222 234.83C476.654 290.859 471.055 376.86 414.746 426.539ZM221.29 207.266C156.13 264.755 149.888 364.537 207.376 429.697C264.865 494.858 364.647 501.099 429.808 443.611C494.968 386.122 501.21 286.34 443.722 221.179C386.233 156.019 286.451 149.777 221.29 207.266ZM430.964 444.921C365.081 503.047 264.191 496.736 206.066 430.854C147.939 364.97 154.251 264.081 220.134 205.956C286.017 147.83 386.906 154.139 445.032 220.023C503.158 285.905 496.847 386.795 430.964 444.921ZM205.461 190.353C130.446 256.536 123.062 371.179 188.997 445.913C254.932 520.647 369.602 527.607 444.616 461.424C519.631 395.242 527.015 280.599 461.08 205.865C395.145 131.13 280.475 124.171 205.461 190.353ZM445.77 462.732C370.034 529.552 254.256 522.527 187.684 447.071C121.112 371.615 128.57 255.865 204.307 189.045C280.044 122.226 395.821 129.25 462.393 204.706C528.965 280.162 521.507 395.913 445.77 462.732ZM189.245 171.974C104.657 246.603 96.5553 376.135 171.182 460.721C245.811 545.308 375.343 553.411 459.931 478.783C544.519 404.154 552.621 274.622 477.992 190.034C403.365 105.448 273.834 97.3449 189.245 171.974ZM461.087 480.093C375.777 555.359 245.138 547.188 169.872 461.877C94.6068 376.567 102.779 245.929 188.089 170.663C273.399 95.3975 404.038 103.569 479.303 188.878C554.569 274.189 546.397 404.827 461.087 480.093ZM173.628 153.475C79.2488 236.742 70.2096 381.264 153.475 475.641C236.741 570.02 381.263 579.061 475.642 495.794C570.021 412.527 579.06 268.005 495.793 173.627C412.528 79.2499 268.006 70.2088 173.628 153.475ZM476.799 497.105C381.699 581.008 236.067 571.899 152.163 476.798C68.2596 381.697 77.3706 236.067 172.471 152.164C267.571 68.2611 413.201 77.3691 497.105 172.47C581.008 267.571 571.899 413.202 476.799 497.105Z" fill="#5A5C5F"/>
<path fill-rule="evenodd" clip-rule="evenodd" d="M283.459 277.731C257.153 300.94 254.634 341.223 277.842 367.528C301.05 393.834 341.333 396.354 367.639 373.145C393.945 349.937 396.465 309.654 373.256 283.348C350.048 257.043 309.765 254.523 283.459 277.731ZM368.796 374.457C341.768 398.303 300.378 395.715 276.53 368.686C252.684 341.657 255.274 300.266 282.302 276.42C309.33 252.574 350.722 255.163 374.568 282.191C398.415 309.221 395.825 350.611 368.796 374.457ZM267.627 260.816C231.469 292.717 227.808 347.861 259.464 383.741C291.121 419.623 346.292 422.863 382.45 390.962C418.608 359.061 422.269 303.917 390.612 268.035C358.956 232.154 303.785 228.914 267.627 260.816ZM383.602 392.268C346.719 424.809 290.44 421.504 258.148 384.903C225.856 348.301 229.591 292.05 266.475 259.509C303.358 226.969 359.636 230.272 391.928 266.874C424.22 303.475 420.486 359.727 383.602 392.268ZM251.414 242.438C205.68 282.787 201.299 352.819 241.647 398.552C281.997 444.287 352.029 448.667 397.763 408.318C443.496 367.969 447.877 297.937 407.528 252.203C367.179 206.47 297.147 202.089 251.414 242.438ZM398.919 409.629C352.463 450.615 281.323 446.166 240.336 399.709C199.351 353.253 203.801 282.114 250.257 241.128C296.713 200.141 367.853 204.591 408.838 251.046C449.825 297.503 445.375 368.643 398.919 409.629ZM236.604 224.624C181.018 273.665 175.494 358.559 224.291 413.868C273.086 469.175 358.006 474.273 413.593 425.232C469.179 376.19 474.703 291.296 425.908 235.989C377.111 180.68 292.191 175.582 236.604 224.624ZM414.746 426.539C358.437 476.218 272.409 471.056 222.977 415.027C173.545 358.998 179.142 272.996 235.451 223.316C291.76 173.637 377.789 178.801 427.222 234.83C476.654 290.859 471.055 376.86 414.746 426.539ZM221.29 207.266C156.13 264.755 149.888 364.537 207.376 429.697C264.865 494.858 364.647 501.099 429.808 443.611C494.968 386.122 501.21 286.34 443.722 221.179C386.233 156.019 286.451 149.777 221.29 207.266ZM430.964 444.921C365.081 503.047 264.191 496.736 206.066 430.854C147.939 364.97 154.251 264.081 220.134 205.956C286.017 147.83 386.906 154.139 445.032 220.023C503.158 285.905 496.847 386.795 430.964 444.921ZM205.461 190.353C130.446 256.536 123.062 371.179 188.997 445.913C254.932 520.647 369.602 527.607 444.616 461.424C519.631 395.242 527.015 280.599 461.08 205.865C395.145 131.13 280.475 124.171 205.461 190.353ZM445.77 462.732C370.034 529.552 254.256 522.527 187.684 447.071C121.112 371.615 128.57 255.865 204.307 189.045C280.044 122.226 395.821 129.25 462.393 204.706C528.965 280.162 521.507 395.913 445.77 462.732ZM189.245 171.974C104.657 246.603 96.5553 376.135 171.182 460.721C245.811 545.308 375.343 553.411 459.931 478.783C544.519 404.154 552.621 274.622 477.992 190.034C403.365 105.448 273.834 97.3449 189.245 171.974ZM461.087 480.093C375.777 555.359 245.138 547.188 169.872 461.877C94.6068 376.567 102.779 245.929 188.089 170.663C273.399 95.3975 404.038 103.569 479.303 188.878C554.569 274.189 546.397 404.827 461.087 480.093ZM173.628 153.475C79.2488 236.742 70.2096 381.264 153.475 475.641C236.741 570.02 381.263 579.061 475.642 495.794C570.021 412.527 579.06 268.005 495.793 173.627C412.528 79.2499 268.006 70.2088 173.628 153.475ZM476.799 497.105C381.699 581.008 236.067 571.899 152.163 476.798C68.2596 381.697 77.3706 236.067 172.471 152.164C267.571 68.2611 413.201 77.3691 497.105 172.47C581.008 267.571 571.899 413.202 476.799 497.105Z" fill="url(#paint4_linear)"/>
</g>
<defs>
<linearGradient id="paint0_linear" x1="280.334" y1="365.333" x2="367.666" y2="365.333" gradientUnits="userSpaceOnUse">
<stop stop-color="#7A4BA5"/>
<stop offset="1" stop-color="#C93F7A"/>
</linearGradient>
<linearGradient id="paint1_linear" x1="302.171" y1="340.33" x2="346.829" y2="340.33" gradientUnits="userSpaceOnUse">
<stop stop-color="#7A4BA5"/>
<stop offset="1" stop-color="#C93F7A"/>
</linearGradient>
<linearGradient id="paint2_linear" x1="302.171" y1="332.83" x2="346.829" y2="332.83" gradientUnits="userSpaceOnUse">
<stop stop-color="#7A4BA5"/>
<stop offset="1" stop-color="#C93F7A"/>
</linearGradient>
<linearGradient id="paint3_linear" x1="302.171" y1="325.33" x2="346.829" y2="325.33" gradientUnits="userSpaceOnUse">
<stop stop-color="#7A4BA5"/>
<stop offset="1" stop-color="#C93F7A"/>
</linearGradient>
<linearGradient id="paint4_linear" x1="513.861" y1="430.861" x2="345.504" y2="181.102" gradientUnits="userSpaceOnUse">
<stop stop-color="#000000"/>
<stop offset="1" stop-color="#000000" stop-opacity="0"/>
</linearGradient>
</defs>
</svg>
