<svg id="Capa_1" enable-background="new 0 0 512 512" height="512" viewBox="0 0 512 512" width="512" xmlns="http://www.w3.org/2000/svg" xmlns:xlink="http://www.w3.org/1999/xlink"><linearGradient id="SVGID_1_" gradientTransform="matrix(1 0 0 -1 -561.6 -7650.99)" gradientUnits="userSpaceOnUse" x1="800.982" x2="890.978" y1="-7750.306" y2="-8216.783"><stop offset="0" stop-color="#d2dbfc" stop-opacity="0"/><stop offset="1" stop-color="#b8c1fb"/></linearGradient><g><g><path d="m471.476 120.81c-65.417-50.293-128.867-9.306-199.64-23.797-71.285-14.597-99.685-63.201-180.876-40.766-71.922 19.874-115.562 99.552-76.024 166.259 11.267 19.009 30.461 33.35 38.305 54.619 12.653 34.311-6.607 60.653-2.85 94.372 15.612 140.102 229.574 85.834 308.303 42.245 123.47-68.36 206.998-220.497 112.782-292.932z" fill="url(#SVGID_1_)"/><path d="m413.594 408.424h-20.594v-201.168c0-7.087-5.745-12.833-12.833-12.833h-67.167v-10.5c0-5.799-4.701-10.5-10.5-10.5h-13.5v-28.793c0-24.996-17.83-46.836-42.506-50.823-31.859-5.148-59.494 19.311-59.494 50.075v29.542h-6.94c-9.422 0-17.06 7.638-17.06 17.06v3.94h-59.251c-11.46 0-20.75 9.371-20.75 20.942v193.058h-20.523c-6.89 0-12.476 5.586-12.476 12.476v11.549c0 12.132 9.743 21.975 21.777 21.975h332.449c12.033 0 21.775-9.842 21.775-21.975v-11.619c-.001-6.852-5.555-12.406-12.407-12.406zm-203.595-264c0-17.601 16.102-31.486 34.253-27.507 12.814 2.809 21.748 14.475 21.748 27.593v29.913h-56v-30h-.001z" fill="#2b2ab5" opacity=".11"/><path d="m296.555 185.491c-6.827.608-12.555-4.753-12.555-11.453v-47.41c0-13.135-8.953-24.827-21.791-27.603-18.133-3.92-34.209 9.862-34.209 27.329v47.331c0 6.008-4.46 11.273-10.445 11.806-6.827.608-12.555-4.753-12.555-11.453v-47.17c0-24.98 17.81-46.795 42.464-50.816 31.877-5.2 59.536 19.381 59.536 50.302v47.331c0 6.009-4.46 11.273-10.445 11.806z" fill="#6e80f8"/><path d="m411 197.293v209.126c0 2.763-2.243 5.005-5.008 5.005h-304.992v-214.13c0-11.531 9.344-20.869 20.872-20.869h268.257c11.527-.001 20.871 9.337 20.871 20.868z" fill="#fff"/><path d="m376 336.424h-239c-2.761 0-5-2.239-5-5v-60c0-2.761 2.239-5 5-5h239c2.761 0 5 2.239 5 5v60c0 2.761-2.239 5-5 5z" fill="#6e80f8"/><path d="m411 365.424v41c0 2.761-2.239 5-5 5h-305v-46z" fill="#6e80f8"/><path d="m444 403.143v11.383c0 12.09-9.8 21.898-21.904 21.898h-332.192c-12.104 0-21.904-9.808-21.904-21.898v-11.626c0-6.89 5.586-12.476 12.476-12.476h107.073c1.864 0 3.573 1.036 4.435 2.689l6.579 12.622c.861 1.652 2.57 2.689 4.434 2.689h106.008c1.864 0 3.573-1.037 4.435-2.689l6.579-12.622c.861-1.652 2.57-2.689 4.434-2.689h107.069c6.891 0 12.478 5.694 12.478 12.719z" fill="#fff"/><path d="m149 408.424h-43c-2.761 0-5-2.239-5-5v-13h53v13c0 2.761-2.239 5-5 5z" fill="#fff"/><path d="m405 408.424h-43c-2.761 0-5-2.239-5-5v-13h53v13c0 2.761-2.239 5-5 5z" fill="#fff"/><path d="m313.939 295.424h-114.879c-9.422 0-17.06-7.638-17.06-17.06v-105.88c0-9.422 7.638-17.06 17.06-17.06h114.88c9.422 0 17.06 7.638 17.06 17.06v105.879c0 9.422-7.639 17.061-17.061 17.061z" fill="#fff"/><g fill="#6e80f8"><path d="m251.762 196.213-11.015 22.198c-2.171 4.375-2.171 9.514 0 13.889l11.015 22.198c1.739 3.504 6.737 3.504 8.476 0l11.015-22.198c2.171-4.375 2.171-9.514 0-13.889l-11.015-22.198c-1.739-3.504-6.737-3.504-8.476 0z"/><path d="m99.675 152.985c-3.739 0-7.479-1.424-10.325-4.271-5.693-5.692-5.693-14.957-.001-20.651 6.787-6.787 18.649-5.483 23.486 3.911.312.605.569 1.24.765 1.891 1.657 5.496.209 11.039-3.6 14.849v.001c-2.846 2.847-6.585 4.27-10.325 4.27zm.07-19.197c-1.413 0-2.825.645-3.755 1.933-1.083 1.501-1.145 3.584-.136 5.137 1.656 2.55 5.118 2.812 7.146.787 0-.001 0-.001 0-.001.869-.869 1.349-2.024 1.349-3.254s-.479-2.386-1.349-3.256c-.897-.897-2.076-1.346-3.255-1.346z"/><path d="m171.068 138.702c-5.42 0-10.393-2.936-13.097-8.051-.321-.607-.585-1.244-.789-1.899-1.719-5.537-.279-11.139 3.56-14.978 5.693-5.691 14.957-5.694 20.65.001 5.694 5.693 5.694 14.957 0 20.65h.001c-.001 0-.001 0-.001 0-2.756 2.757-6.423 4.277-10.324 4.277zm0-19.134c-1.179 0-2.357.449-3.255 1.346-.869.87-1.349 2.025-1.349 3.255s.479 2.385 1.349 3.254c.87.87 2.025 1.35 3.255 1.35s2.385-.479 3.254-1.349h.001c.777 0 1.452-.584 1.525-1.358.403-4.329-2.188-6.498-4.78-6.498z"/><path d="m453.063 355.424h-3.063v-3.063c0-2.404-1.611-4.613-3.968-5.084-3.214-.642-6.032 1.798-6.032 4.897v3.25h-3.063c-2.404 0-4.613 1.611-5.084 3.968-.642 3.214 1.797 6.032 4.897 6.032h3.25v3.063c0 2.404 1.611 4.613 3.968 5.084 3.214.642 6.032-1.797 6.032-4.897v-3.25h3.25c3.099 0 5.539-2.818 4.897-6.032-.471-2.358-2.681-3.968-5.084-3.968z"/><path d="m76.063 345.424h-3.063v-3.063c0-2.404-1.61-4.613-3.968-5.084-3.214-.642-6.032 1.798-6.032 4.897v3.25h-3.063c-2.404 0-4.613 1.611-5.084 3.968-.642 3.214 1.797 6.032 4.897 6.032h3.25v3.063c0 2.404 1.611 4.613 3.968 5.084 3.214.642 6.032-1.797 6.032-4.897v-3.25h3.25c3.099 0 5.539-2.818 4.897-6.032-.471-2.358-2.681-3.968-5.084-3.968z"/><path d="m139.063 89.424h-3.063v-3.063c0-2.404-1.611-4.613-3.968-5.084-3.214-.642-6.032 1.797-6.032 4.897v3.25h-3.063c-2.404 0-4.613 1.61-5.084 3.968-.642 3.214 1.797 6.032 4.897 6.032h3.25v3.063c0 2.404 1.611 4.613 3.968 5.084 3.214.642 6.032-1.797 6.032-4.897v-3.25h3.25c3.099 0 5.539-2.818 4.897-6.032-.471-2.358-2.681-3.968-5.084-3.968z"/></g><g fill="#2b2ab5"><path d="m264.67 381.424h-17.155c-2.404 0-4.613 1.611-5.084 3.968-.642 3.214 1.797 6.032 4.897 6.032h17.155c2.404 0 4.613-1.611 5.084-3.968.642-3.214-1.798-6.032-4.897-6.032z"/><path d="m264.717 193.99c-1.654-3.334-4.995-5.405-8.717-5.405s-7.063 2.071-8.717 5.405l-11.015 22.198c-2.849 5.74-2.849 12.594 0 18.334l11.015 22.198c1.654 3.334 4.995 5.405 8.717 5.405s7.063-2.071 8.717-5.405l11.015-22.198c2.849-5.74 2.849-12.594 0-18.334zm-8.476 4.444s0 .001-.001.002l-4.479-2.223zm10.533 31.643-10.774 21.714-10.774-21.714c-1.467-2.956-1.467-6.487 0-9.443l10.774-21.714 10.774 21.714c1.467 2.956 1.467 6.487 0 9.443z"/></g><path d="m385.451 257.833c0-9.16-7.453-16.613-16.613-16.613s-16.613 7.453-16.613 16.613c0 4.518 1.818 8.615 4.755 11.613-2.937 2.998-4.755 7.096-4.755 11.613 0 2.762 2.238 5 5 5s5-2.238 5-5c0-3.646 2.967-6.613 6.613-6.613s6.613 2.967 6.613 6.613c0 2.762 2.238 5 5 5s5-2.238 5-5c0-4.518-1.818-8.615-4.755-11.613 2.937-2.998 4.755-7.095 4.755-11.613zm-16.613-6.613c3.646 0 6.613 2.967 6.613 6.613s-2.967 6.613-6.613 6.613-6.613-2.967-6.613-6.613 2.966-6.613 6.613-6.613z" fill="#2b2ab5"/></g><path d="m431.474 385.686h-15.706v-188.152c0-14.251-11.594-25.846-25.845-25.846h-54.534c-.6-11.632-10.252-20.911-22.03-20.911h-1.597v-24.543c0-30.747-25.015-55.762-55.762-55.762s-55.762 25.015-55.762 55.762v24.543h-1.597c-11.779 0-21.43 9.279-22.03 20.911h-54.536c-14.251 0-25.846 11.595-25.846 25.846v188.151h-15.704c-9.636 0-17.476 7.84-17.476 17.476v11.465c0 14.831 12.066 26.897 26.897 26.897 2.762 0 5-2.238 5-5s-2.238-5-5-5c-9.317 0-16.897-7.58-16.897-16.897v-11.465c0-4.122 3.354-7.476 7.476-7.476h15.791v8.118c0 5.514 4.486 10 10 10h43.333c5.514 0 10-4.486 10-10v-8.118h27.943l6.56 12.348c1.739 3.273 5.123 5.308 8.831 5.308h106.031c3.707 0 7.091-2.033 8.832-5.308l6.56-12.348h27.818v8.118c0 5.514 4.486 10 10 10h43.333c5.514 0 10-4.486 10-10v-8.118h15.916c4.122 0 7.476 3.354 7.476 7.476v11.465c0 9.317-7.581 16.897-16.898 16.897h-304.004c-2.762 0-5 2.238-5 5s2.238 5 5 5h304.004c14.832 0 26.898-12.066 26.898-26.897v-11.465c0-9.636-7.84-17.475-17.475-17.475zm-221.236-259.452c0-25.233 20.528-45.762 45.762-45.762s45.762 20.528 45.762 45.762v24.543h-13v-24.543c0-18.064-14.697-32.762-32.762-32.762s-32.762 14.697-32.762 32.762v24.543h-13zm68.524 24.543h-45.523v-24.543c0-12.551 10.211-22.762 22.762-22.762s22.762 10.211 22.762 22.762v24.543zm-156.686 30.912h54.506v96.865c0 12.164 9.896 22.06 22.06 22.06h114.717c12.164 0 22.06-9.896 22.06-22.06v-73.766c0-2.762-2.238-5-5-5s-5 2.238-5 5v73.766c0 6.649-5.41 12.06-12.06 12.06h-114.717c-6.649 0-12.06-5.41-12.06-12.06v-105.717c0-6.649 5.41-12.06 12.06-12.06h114.717c6.649 0 12.06 5.41 12.06 12.06v3.852c0 2.762 2.238 5 5 5h59.505c8.737 0 15.845 7.108 15.845 15.846v163.304h-299.538v-163.305c0-8.737 7.108-15.845 15.845-15.845zm27.58 222.115h-43.34v-8.118h43.336zm165.918-12.81-6.56 12.347-106.031.001-6.56-12.346c-1.738-3.275-5.122-5.311-8.831-5.311h-81.362v-14.848h299.537v14.848h-81.361c-3.708.001-7.091 2.035-8.832 5.309zm46.651 12.81v-8.118h43.336l.004 8.118z" fill="#2720b9"/></g></svg>