<svg width="1797" height="1601" viewBox="0 0 1797 1601" fill="none" xmlns="http://www.w3.org/2000/svg">
<g opacity="0.7">
<g opacity="0.4">
<path fill-rule="evenodd" clip-rule="evenodd" d="M864.861 548.797C851.241 548.797 840.16 559.951 840.16 573.66C840.16 587.369 851.241 598.521 864.861 598.521C878.48 598.521 889.562 587.369 889.562 573.66C889.562 559.951 878.48 548.797 864.861 548.797ZM864.861 601.146C849.804 601.146 837.552 588.816 837.552 573.66C837.552 558.502 849.804 546.172 864.861 546.172C879.918 546.172 892.17 558.502 892.17 573.66C892.17 588.816 879.918 601.146 864.861 601.146ZM864.861 514.154C832.261 514.154 805.741 540.847 805.741 573.659C805.741 606.471 832.261 633.164 864.861 633.164C897.461 633.164 923.981 606.471 923.981 573.659C923.981 540.847 897.461 514.154 864.861 514.154ZM864.861 635.76C830.84 635.76 803.162 607.901 803.162 573.659C803.162 539.416 830.84 511.558 864.861 511.558C898.882 511.558 926.56 539.416 926.56 573.659C926.56 607.901 898.882 635.76 864.861 635.76ZM865.872 479.559C813.764 479.559 771.37 522.229 771.37 574.677C771.37 627.125 813.764 669.795 865.872 669.795C917.981 669.795 960.374 627.125 960.374 574.677C960.374 522.229 917.981 479.559 865.872 479.559ZM865.872 672.41C812.332 672.41 768.772 628.569 768.772 574.677C768.772 520.788 812.332 476.944 865.872 476.944C919.413 476.944 962.973 520.788 962.973 574.677C962.973 628.569 919.413 672.41 865.872 672.41ZM864.861 444.934C793.236 444.934 734.967 503.137 734.967 574.676C734.967 646.217 793.236 704.42 864.861 704.42C936.486 704.42 994.755 646.217 994.755 574.676C994.755 503.137 936.486 444.934 864.861 444.934ZM864.861 707.024C791.799 707.024 732.36 647.652 732.36 574.676C732.36 501.7 791.799 442.33 864.861 442.33C937.923 442.33 997.362 501.7 997.362 574.676C997.362 647.652 937.923 707.024 864.861 707.024ZM864.861 408.294C774.268 408.294 700.567 482.475 700.567 573.658C700.567 664.843 774.268 739.024 864.861 739.024C955.454 739.024 1029.16 664.843 1029.16 573.658C1029.16 482.475 955.454 408.294 864.861 408.294ZM864.861 741.638C772.837 741.638 697.97 666.283 697.97 573.658C697.97 481.035 772.837 405.68 864.861 405.68C956.885 405.68 1031.75 481.035 1031.75 573.658C1031.75 666.283 956.885 741.638 864.861 741.638ZM865.872 373.673C755.762 373.673 666.183 463.386 666.183 573.66C666.183 683.932 755.762 773.645 865.872 773.645C975.982 773.645 1065.56 683.932 1065.56 573.66C1065.56 463.386 975.982 373.673 865.872 373.673ZM865.872 776.252C754.331 776.252 663.58 685.371 663.58 573.66C663.58 461.95 754.331 371.066 865.872 371.066C977.414 371.066 1068.16 461.95 1068.16 573.66C1068.16 685.371 977.414 776.252 865.872 776.252ZM865.872 339.065C736.797 339.065 631.787 444.76 631.787 574.677C631.787 704.594 736.797 810.289 865.872 810.289C994.948 810.289 1099.96 704.594 1099.96 574.677C1099.96 444.76 994.948 339.065 865.872 339.065ZM865.872 812.901C735.367 812.901 629.191 706.033 629.191 574.677C629.191 443.318 735.367 336.453 865.872 336.453C996.378 336.453 1102.55 443.318 1102.55 574.677C1102.55 706.033 996.378 812.901 865.872 812.901ZM864.861 304.447C716.266 304.447 595.379 425.672 595.379 574.677C595.379 723.682 716.266 844.907 864.861 844.907C1013.46 844.907 1134.34 723.682 1134.34 574.677C1134.34 425.672 1013.46 304.447 864.861 304.447ZM864.861 847.515C714.836 847.515 592.778 725.121 592.778 574.677C592.778 424.233 714.836 301.839 864.861 301.839C1014.89 301.839 1136.94 424.233 1136.94 574.677C1136.94 725.121 1014.89 847.515 864.861 847.515ZM864.861 267.801C697.302 267.801 560.984 405.01 560.984 573.658C560.984 742.308 697.302 879.517 864.861 879.517C1032.42 879.517 1168.74 742.308 1168.74 573.658C1168.74 405.01 1032.42 267.801 864.861 267.801ZM864.861 882.129C695.872 882.129 558.388 743.75 558.388 573.658C558.388 403.568 695.872 265.189 864.861 265.189C1033.85 265.189 1171.33 403.568 1171.33 573.658C1171.33 743.75 1033.85 882.129 864.861 882.129ZM865.644 231.615C678.691 231.615 526.598 384.701 526.598 572.87C526.598 761.042 678.691 914.129 865.644 914.129C1052.6 914.129 1204.69 761.042 1204.69 572.87C1204.69 384.701 1052.6 231.615 865.644 231.615ZM865.644 916.743C677.262 916.743 524 762.482 524 572.87C524 383.258 677.262 229 865.644 229C1054.03 229 1207.29 383.258 1207.29 572.87C1207.29 762.482 1054.03 916.743 865.644 916.743Z" fill="#9D458E"/>
<path fill-rule="evenodd" clip-rule="evenodd" d="M864.861 548.797C851.241 548.797 840.16 559.951 840.16 573.66C840.16 587.369 851.241 598.521 864.861 598.521C878.48 598.521 889.562 587.369 889.562 573.66C889.562 559.951 878.48 548.797 864.861 548.797ZM864.861 601.146C849.804 601.146 837.552 588.816 837.552 573.66C837.552 558.502 849.804 546.172 864.861 546.172C879.918 546.172 892.17 558.502 892.17 573.66C892.17 588.816 879.918 601.146 864.861 601.146ZM864.861 514.154C832.261 514.154 805.741 540.847 805.741 573.659C805.741 606.471 832.261 633.164 864.861 633.164C897.461 633.164 923.981 606.471 923.981 573.659C923.981 540.847 897.461 514.154 864.861 514.154ZM864.861 635.76C830.84 635.76 803.162 607.901 803.162 573.659C803.162 539.416 830.84 511.558 864.861 511.558C898.882 511.558 926.56 539.416 926.56 573.659C926.56 607.901 898.882 635.76 864.861 635.76ZM865.872 479.559C813.764 479.559 771.37 522.229 771.37 574.677C771.37 627.125 813.764 669.795 865.872 669.795C917.981 669.795 960.374 627.125 960.374 574.677C960.374 522.229 917.981 479.559 865.872 479.559ZM865.872 672.41C812.332 672.41 768.772 628.569 768.772 574.677C768.772 520.788 812.332 476.944 865.872 476.944C919.413 476.944 962.973 520.788 962.973 574.677C962.973 628.569 919.413 672.41 865.872 672.41ZM864.861 444.934C793.236 444.934 734.967 503.137 734.967 574.676C734.967 646.217 793.236 704.42 864.861 704.42C936.486 704.42 994.755 646.217 994.755 574.676C994.755 503.137 936.486 444.934 864.861 444.934ZM864.861 707.024C791.799 707.024 732.36 647.652 732.36 574.676C732.36 501.7 791.799 442.33 864.861 442.33C937.923 442.33 997.362 501.7 997.362 574.676C997.362 647.652 937.923 707.024 864.861 707.024ZM864.861 408.294C774.268 408.294 700.567 482.475 700.567 573.658C700.567 664.843 774.268 739.024 864.861 739.024C955.454 739.024 1029.16 664.843 1029.16 573.658C1029.16 482.475 955.454 408.294 864.861 408.294ZM864.861 741.638C772.837 741.638 697.97 666.283 697.97 573.658C697.97 481.035 772.837 405.68 864.861 405.68C956.885 405.68 1031.75 481.035 1031.75 573.658C1031.75 666.283 956.885 741.638 864.861 741.638ZM865.872 373.673C755.762 373.673 666.183 463.386 666.183 573.66C666.183 683.932 755.762 773.645 865.872 773.645C975.982 773.645 1065.56 683.932 1065.56 573.66C1065.56 463.386 975.982 373.673 865.872 373.673ZM865.872 776.252C754.331 776.252 663.58 685.371 663.58 573.66C663.58 461.95 754.331 371.066 865.872 371.066C977.414 371.066 1068.16 461.95 1068.16 573.66C1068.16 685.371 977.414 776.252 865.872 776.252ZM865.872 339.065C736.797 339.065 631.787 444.76 631.787 574.677C631.787 704.594 736.797 810.289 865.872 810.289C994.948 810.289 1099.96 704.594 1099.96 574.677C1099.96 444.76 994.948 339.065 865.872 339.065ZM865.872 812.901C735.367 812.901 629.191 706.033 629.191 574.677C629.191 443.318 735.367 336.453 865.872 336.453C996.378 336.453 1102.55 443.318 1102.55 574.677C1102.55 706.033 996.378 812.901 865.872 812.901ZM864.861 304.447C716.266 304.447 595.379 425.672 595.379 574.677C595.379 723.682 716.266 844.907 864.861 844.907C1013.46 844.907 1134.34 723.682 1134.34 574.677C1134.34 425.672 1013.46 304.447 864.861 304.447ZM864.861 847.515C714.836 847.515 592.778 725.121 592.778 574.677C592.778 424.233 714.836 301.839 864.861 301.839C1014.89 301.839 1136.94 424.233 1136.94 574.677C1136.94 725.121 1014.89 847.515 864.861 847.515ZM864.861 267.801C697.302 267.801 560.984 405.01 560.984 573.658C560.984 742.308 697.302 879.517 864.861 879.517C1032.42 879.517 1168.74 742.308 1168.74 573.658C1168.74 405.01 1032.42 267.801 864.861 267.801ZM864.861 882.129C695.872 882.129 558.388 743.75 558.388 573.658C558.388 403.568 695.872 265.189 864.861 265.189C1033.85 265.189 1171.33 403.568 1171.33 573.658C1171.33 743.75 1033.85 882.129 864.861 882.129ZM865.644 231.615C678.691 231.615 526.598 384.701 526.598 572.87C526.598 761.042 678.691 914.129 865.644 914.129C1052.6 914.129 1204.69 761.042 1204.69 572.87C1204.69 384.701 1052.6 231.615 865.644 231.615ZM865.644 916.743C677.262 916.743 524 762.482 524 572.87C524 383.258 677.262 229 865.644 229C1054.03 229 1207.29 383.258 1207.29 572.87C1207.29 762.482 1054.03 916.743 865.644 916.743Z" fill="url(#paint0_linear)"/>
</g>
<g opacity="0.3">
<path fill-rule="evenodd" clip-rule="evenodd" d="M1084.64 392.856C1082.28 406.282 1091.34 419.135 1104.83 421.505C1118.32 423.875 1131.21 414.878 1133.57 401.452C1135.92 388.026 1126.86 375.174 1113.37 372.803C1099.88 370.433 1086.99 379.429 1084.64 392.856ZM1136.15 401.906C1133.55 416.749 1119.3 426.696 1104.38 424.076C1089.46 421.455 1079.45 407.245 1082.05 392.402C1084.65 377.559 1098.91 367.612 1113.82 370.232C1128.74 372.853 1138.75 387.063 1136.15 401.906ZM1050.54 386.866C1044.91 419.003 1066.59 449.762 1098.88 455.435C1131.17 461.107 1162.02 439.578 1167.66 407.442C1173.3 375.305 1151.61 344.546 1119.32 338.873C1087.03 333.2 1056.18 354.729 1050.54 386.866ZM1170.21 407.89C1164.33 441.428 1132.13 463.897 1098.43 457.977C1064.74 452.057 1042.11 419.955 1047.99 386.417C1053.87 352.88 1086.07 330.411 1119.77 336.331C1153.47 342.251 1176.1 374.352 1170.21 407.89ZM1016.67 379.888C1007.67 431.257 1042.33 480.426 1093.94 489.493C1145.55 498.561 1194.87 464.146 1203.88 412.777C1212.89 361.409 1178.23 312.24 1126.62 303.172C1075 294.105 1025.68 328.519 1016.67 379.888ZM1206.46 413.23C1197.2 466.01 1146.52 501.372 1093.49 492.055C1040.46 482.738 1004.84 432.216 1014.1 379.436C1023.36 326.656 1074.03 291.294 1127.07 300.611C1180.1 309.928 1215.71 360.449 1206.46 413.23ZM982.426 374.899C970.043 445.508 1017.25 513.012 1087.65 525.38C1158.05 537.749 1225.4 490.369 1237.78 419.761C1250.16 349.152 1202.96 281.648 1132.56 269.279C1062.16 256.911 994.809 304.29 982.426 374.899ZM1240.34 420.211C1227.71 492.236 1159.01 540.567 1087.19 527.95C1015.38 515.334 967.232 446.474 979.864 374.449C992.495 302.424 1061.2 254.093 1133.01 266.709C1204.82 279.326 1252.97 348.186 1240.34 420.211ZM946.369 368.565C930.707 457.872 990.965 543.352 1080.7 559.116C1170.43 574.881 1256.17 515.05 1271.83 425.743C1287.5 336.436 1227.24 250.956 1137.5 235.191C1047.77 219.427 962.032 279.258 946.369 368.565ZM1274.41 426.195C1258.5 516.913 1171.4 577.689 1080.25 561.676C989.099 545.663 927.888 458.83 943.797 368.113C959.707 277.395 1046.81 216.618 1137.95 232.632C1229.1 248.645 1290.32 335.478 1274.41 426.195ZM912.475 361.582C893.438 470.129 966.236 573.947 1074.75 593.012C1183.27 612.076 1287.04 539.279 1306.08 430.732C1325.11 322.185 1252.32 218.367 1143.8 199.302C1035.28 180.237 931.511 253.035 912.475 361.582ZM1308.64 431.182C1289.36 541.141 1184.24 614.891 1074.3 595.578C964.372 576.265 890.626 471.09 909.909 361.131C929.193 251.173 1034.32 177.423 1144.25 196.736C1254.18 216.05 1327.93 321.224 1308.64 431.182ZM878.418 355.599C856.103 482.842 941.96 604.635 1069.81 627.096C1197.66 649.557 1319.82 564.31 1342.14 437.067C1364.45 309.824 1278.6 188.03 1150.75 165.57C1022.9 143.109 900.733 228.356 878.418 355.599ZM1344.71 437.518C1322.15 566.172 1198.62 652.365 1069.36 629.655C940.092 606.945 853.284 483.8 875.847 355.147C898.409 226.494 1021.93 140.3 1151.2 163.011C1280.46 185.72 1367.27 308.865 1344.71 437.518ZM844.176 350.611C818.486 497.096 916.882 637.226 1063.51 662.987C1210.15 688.748 1350.34 590.535 1376.03 444.049C1401.72 297.564 1303.33 157.434 1156.69 131.673C1010.06 105.912 869.865 204.125 844.176 350.611ZM1378.6 444.5C1352.66 592.395 1211.11 691.561 1063.06 665.551C915.015 639.541 815.672 498.056 841.609 350.16C867.546 202.264 1009.09 103.099 1157.14 129.109C1305.19 155.119 1404.54 296.604 1378.6 444.5ZM808.114 344.275C779.145 509.456 890.602 667.56 1056.56 696.717C1222.53 725.875 1381.12 615.213 1410.09 450.032C1439.06 284.852 1327.6 126.747 1161.64 97.5901C995.674 68.4332 837.082 179.095 808.114 344.275ZM1412.66 450.484C1383.44 617.075 1223.5 728.683 1056.12 699.276C888.734 669.87 776.327 510.414 805.543 343.824C834.759 177.233 994.703 65.6251 1162.09 95.0313C1329.47 124.438 1441.88 283.894 1412.66 450.484ZM772.638 337.248C740.317 521.547 864.672 697.948 1049.84 730.479C1235.02 763.012 1411.96 639.544 1444.29 455.245C1476.61 270.946 1352.25 94.545 1167.08 62.0127C981.904 29.481 804.96 152.948 772.638 337.248ZM1446.86 455.697C1414.29 641.405 1235.99 765.822 1049.4 733.04C862.802 700.259 737.497 522.503 770.065 336.796C802.634 151.088 980.933 26.6707 1167.53 59.452C1354.12 92.2333 1479.43 269.989 1446.86 455.697Z" fill="#9D458E"/>
<path fill-rule="evenodd" clip-rule="evenodd" d="M1084.64 392.856C1082.28 406.282 1091.34 419.135 1104.83 421.505C1118.32 423.875 1131.21 414.878 1133.57 401.452C1135.92 388.026 1126.86 375.174 1113.37 372.803C1099.88 370.433 1086.99 379.429 1084.64 392.856ZM1136.15 401.906C1133.55 416.749 1119.3 426.696 1104.38 424.076C1089.46 421.455 1079.45 407.245 1082.05 392.402C1084.65 377.559 1098.91 367.612 1113.82 370.232C1128.74 372.853 1138.75 387.063 1136.15 401.906ZM1050.54 386.866C1044.91 419.003 1066.59 449.762 1098.88 455.435C1131.17 461.107 1162.02 439.578 1167.66 407.442C1173.3 375.305 1151.61 344.546 1119.32 338.873C1087.03 333.2 1056.18 354.729 1050.54 386.866ZM1170.21 407.89C1164.33 441.428 1132.13 463.897 1098.43 457.977C1064.74 452.057 1042.11 419.955 1047.99 386.417C1053.87 352.88 1086.07 330.411 1119.77 336.331C1153.47 342.251 1176.1 374.352 1170.21 407.89ZM1016.67 379.888C1007.67 431.257 1042.33 480.426 1093.94 489.493C1145.55 498.561 1194.87 464.146 1203.88 412.777C1212.89 361.409 1178.23 312.24 1126.62 303.172C1075 294.105 1025.68 328.519 1016.67 379.888ZM1206.46 413.23C1197.2 466.01 1146.52 501.372 1093.49 492.055C1040.46 482.738 1004.84 432.216 1014.1 379.436C1023.36 326.656 1074.03 291.294 1127.07 300.611C1180.1 309.928 1215.71 360.449 1206.46 413.23ZM982.426 374.899C970.043 445.508 1017.25 513.012 1087.65 525.38C1158.05 537.749 1225.4 490.369 1237.78 419.761C1250.16 349.152 1202.96 281.648 1132.56 269.279C1062.16 256.911 994.809 304.29 982.426 374.899ZM1240.34 420.211C1227.71 492.236 1159.01 540.567 1087.19 527.95C1015.38 515.334 967.232 446.474 979.864 374.449C992.495 302.424 1061.2 254.093 1133.01 266.709C1204.82 279.326 1252.97 348.186 1240.34 420.211ZM946.369 368.565C930.707 457.872 990.965 543.352 1080.7 559.116C1170.43 574.881 1256.17 515.05 1271.83 425.743C1287.5 336.436 1227.24 250.956 1137.5 235.191C1047.77 219.427 962.032 279.258 946.369 368.565ZM1274.41 426.195C1258.5 516.913 1171.4 577.689 1080.25 561.676C989.099 545.663 927.888 458.83 943.797 368.113C959.707 277.395 1046.81 216.618 1137.95 232.632C1229.1 248.645 1290.32 335.478 1274.41 426.195ZM912.475 361.582C893.438 470.129 966.236 573.947 1074.75 593.012C1183.27 612.076 1287.04 539.279 1306.08 430.732C1325.11 322.185 1252.32 218.367 1143.8 199.302C1035.28 180.237 931.511 253.035 912.475 361.582ZM1308.64 431.182C1289.36 541.141 1184.24 614.891 1074.3 595.578C964.372 576.265 890.626 471.09 909.909 361.131C929.193 251.173 1034.32 177.423 1144.25 196.736C1254.18 216.05 1327.93 321.224 1308.64 431.182ZM878.418 355.599C856.103 482.842 941.96 604.635 1069.81 627.096C1197.66 649.557 1319.82 564.31 1342.14 437.067C1364.45 309.824 1278.6 188.03 1150.75 165.57C1022.9 143.109 900.733 228.356 878.418 355.599ZM1344.71 437.518C1322.15 566.172 1198.62 652.365 1069.36 629.655C940.092 606.945 853.284 483.8 875.847 355.147C898.409 226.494 1021.93 140.3 1151.2 163.011C1280.46 185.72 1367.27 308.865 1344.71 437.518ZM844.176 350.611C818.486 497.096 916.882 637.226 1063.51 662.987C1210.15 688.748 1350.34 590.535 1376.03 444.049C1401.72 297.564 1303.33 157.434 1156.69 131.673C1010.06 105.912 869.865 204.125 844.176 350.611ZM1378.6 444.5C1352.66 592.395 1211.11 691.561 1063.06 665.551C915.015 639.541 815.672 498.056 841.609 350.16C867.546 202.264 1009.09 103.099 1157.14 129.109C1305.19 155.119 1404.54 296.604 1378.6 444.5ZM808.114 344.275C779.145 509.456 890.602 667.56 1056.56 696.717C1222.53 725.875 1381.12 615.213 1410.09 450.032C1439.06 284.852 1327.6 126.747 1161.64 97.5901C995.674 68.4332 837.082 179.095 808.114 344.275ZM1412.66 450.484C1383.44 617.075 1223.5 728.683 1056.12 699.276C888.734 669.87 776.327 510.414 805.543 343.824C834.759 177.233 994.703 65.6251 1162.09 95.0313C1329.47 124.438 1441.88 283.894 1412.66 450.484ZM772.638 337.248C740.317 521.547 864.672 697.948 1049.84 730.479C1235.02 763.012 1411.96 639.544 1444.29 455.245C1476.61 270.946 1352.25 94.545 1167.08 62.0127C981.904 29.481 804.96 152.948 772.638 337.248ZM1446.86 455.697C1414.29 641.405 1235.99 765.822 1049.4 733.04C862.802 700.259 737.497 522.503 770.065 336.796C802.634 151.088 980.933 26.6707 1167.53 59.452C1354.12 92.2333 1479.43 269.989 1446.86 455.697Z" fill="url(#paint1_linear)"/>
</g>
<g opacity="0.5">
<path fill-rule="evenodd" clip-rule="evenodd" d="M1454.57 645.055C1440.95 645.055 1429.87 656.209 1429.87 669.918C1429.87 683.627 1440.95 694.779 1454.57 694.779C1468.19 694.779 1479.28 683.627 1479.28 669.918C1479.28 656.209 1468.19 645.055 1454.57 645.055ZM1454.57 697.404C1439.52 697.404 1427.26 685.074 1427.26 669.918C1427.26 654.76 1439.52 642.429 1454.57 642.429C1469.63 642.429 1481.88 654.76 1481.88 669.918C1481.88 685.074 1469.63 697.404 1454.57 697.404ZM1454.57 610.412C1421.97 610.412 1395.45 637.105 1395.45 669.917C1395.45 702.729 1421.97 729.422 1454.57 729.422C1487.17 729.422 1513.69 702.729 1513.69 669.917C1513.69 637.105 1487.17 610.412 1454.57 610.412ZM1454.57 732.018C1420.55 732.018 1392.87 704.159 1392.87 669.917C1392.87 635.674 1420.55 607.816 1454.57 607.816C1488.59 607.816 1516.27 635.674 1516.27 669.917C1516.27 704.159 1488.59 732.018 1454.57 732.018ZM1455.59 575.817C1403.48 575.817 1361.08 618.487 1361.08 670.935C1361.08 723.383 1403.48 766.053 1455.59 766.053C1507.69 766.053 1550.09 723.383 1550.09 670.935C1550.09 618.487 1507.69 575.817 1455.59 575.817ZM1455.59 768.668C1402.05 768.668 1358.49 724.827 1358.49 670.935C1358.49 617.046 1402.05 573.202 1455.59 573.202C1509.13 573.202 1552.69 617.046 1552.69 670.935C1552.69 724.827 1509.13 768.668 1455.59 768.668ZM1454.57 541.192C1382.95 541.192 1324.68 599.395 1324.68 670.934C1324.68 742.475 1382.95 800.678 1454.57 800.678C1526.2 800.678 1584.47 742.475 1584.47 670.934C1584.47 599.395 1526.2 541.192 1454.57 541.192ZM1454.57 803.282C1381.51 803.282 1322.07 743.91 1322.07 670.934C1322.07 597.957 1381.51 538.588 1454.57 538.588C1527.64 538.588 1587.08 597.957 1587.08 670.934C1587.08 743.91 1527.64 803.282 1454.57 803.282ZM1454.57 504.552C1363.98 504.552 1290.28 578.733 1290.28 669.915C1290.28 761.101 1363.98 835.282 1454.57 835.282C1545.17 835.282 1618.87 761.101 1618.87 669.915C1618.87 578.733 1545.17 504.552 1454.57 504.552ZM1454.57 837.896C1362.55 837.896 1287.68 762.541 1287.68 669.915C1287.68 577.293 1362.55 501.938 1454.57 501.938C1546.6 501.938 1621.46 577.293 1621.46 669.915C1621.46 762.541 1546.6 837.896 1454.57 837.896ZM1455.59 469.931C1345.48 469.931 1255.9 559.644 1255.9 669.918C1255.9 780.19 1345.48 869.903 1455.59 869.903C1565.7 869.903 1655.27 780.19 1655.27 669.918C1655.27 559.644 1565.7 469.931 1455.59 469.931ZM1455.59 872.509C1344.04 872.509 1253.29 781.629 1253.29 669.918C1253.29 558.208 1344.04 467.324 1455.59 467.324C1567.13 467.324 1657.88 558.208 1657.88 669.918C1657.88 781.629 1567.13 872.509 1455.59 872.509ZM1455.59 435.323C1326.51 435.323 1221.5 541.018 1221.5 670.935C1221.5 800.851 1326.51 906.546 1455.59 906.546C1584.66 906.546 1689.67 800.851 1689.67 670.935C1689.67 541.018 1584.66 435.323 1455.59 435.323ZM1455.59 909.159C1325.08 909.159 1218.9 802.291 1218.9 670.935C1218.9 539.576 1325.08 432.71 1455.59 432.71C1586.09 432.71 1692.27 539.576 1692.27 670.935C1692.27 802.291 1586.09 909.159 1455.59 909.159ZM1454.57 400.704C1305.98 400.704 1185.09 521.93 1185.09 670.935C1185.09 819.939 1305.98 941.165 1454.57 941.165C1603.17 941.165 1724.06 819.939 1724.06 670.935C1724.06 521.93 1603.17 400.704 1454.57 400.704ZM1454.57 943.773C1304.55 943.773 1182.49 821.379 1182.49 670.935C1182.49 520.491 1304.55 398.097 1454.57 398.097C1604.6 398.097 1726.66 520.491 1726.66 670.935C1726.66 821.379 1604.6 943.773 1454.57 943.773ZM1454.57 364.059C1287.01 364.059 1150.7 501.268 1150.7 669.915C1150.7 838.566 1287.01 975.774 1454.57 975.774C1622.13 975.774 1758.45 838.566 1758.45 669.915C1758.45 501.268 1622.13 364.059 1454.57 364.059ZM1454.57 978.387C1285.58 978.387 1148.1 840.008 1148.1 669.915C1148.1 499.826 1285.58 361.447 1454.57 361.447C1623.56 361.447 1761.05 499.826 1761.05 669.915C1761.05 840.008 1623.56 978.387 1454.57 978.387ZM1455.36 327.872C1268.4 327.872 1116.31 480.959 1116.31 669.128C1116.31 857.3 1268.4 1010.39 1455.36 1010.39C1642.31 1010.39 1794.4 857.3 1794.4 669.128C1794.4 480.959 1642.31 327.872 1455.36 327.872ZM1455.36 1013C1266.97 1013 1113.71 858.74 1113.71 669.128C1113.71 479.516 1266.97 325.258 1455.36 325.258C1643.74 325.258 1797 479.516 1797 669.128C1797 858.74 1643.74 1013 1455.36 1013Z" fill="#9D458E"/>
<path fill-rule="evenodd" clip-rule="evenodd" d="M1454.57 645.055C1440.95 645.055 1429.87 656.209 1429.87 669.918C1429.87 683.627 1440.95 694.779 1454.57 694.779C1468.19 694.779 1479.28 683.627 1479.28 669.918C1479.28 656.209 1468.19 645.055 1454.57 645.055ZM1454.57 697.404C1439.52 697.404 1427.26 685.074 1427.26 669.918C1427.26 654.76 1439.52 642.429 1454.57 642.429C1469.63 642.429 1481.88 654.76 1481.88 669.918C1481.88 685.074 1469.63 697.404 1454.57 697.404ZM1454.57 610.412C1421.97 610.412 1395.45 637.105 1395.45 669.917C1395.45 702.729 1421.97 729.422 1454.57 729.422C1487.17 729.422 1513.69 702.729 1513.69 669.917C1513.69 637.105 1487.17 610.412 1454.57 610.412ZM1454.57 732.018C1420.55 732.018 1392.87 704.159 1392.87 669.917C1392.87 635.674 1420.55 607.816 1454.57 607.816C1488.59 607.816 1516.27 635.674 1516.27 669.917C1516.27 704.159 1488.59 732.018 1454.57 732.018ZM1455.59 575.817C1403.48 575.817 1361.08 618.487 1361.08 670.935C1361.08 723.383 1403.48 766.053 1455.59 766.053C1507.69 766.053 1550.09 723.383 1550.09 670.935C1550.09 618.487 1507.69 575.817 1455.59 575.817ZM1455.59 768.668C1402.05 768.668 1358.49 724.827 1358.49 670.935C1358.49 617.046 1402.05 573.202 1455.59 573.202C1509.13 573.202 1552.69 617.046 1552.69 670.935C1552.69 724.827 1509.13 768.668 1455.59 768.668ZM1454.57 541.192C1382.95 541.192 1324.68 599.395 1324.68 670.934C1324.68 742.475 1382.95 800.678 1454.57 800.678C1526.2 800.678 1584.47 742.475 1584.47 670.934C1584.47 599.395 1526.2 541.192 1454.57 541.192ZM1454.57 803.282C1381.51 803.282 1322.07 743.91 1322.07 670.934C1322.07 597.957 1381.51 538.588 1454.57 538.588C1527.64 538.588 1587.08 597.957 1587.08 670.934C1587.08 743.91 1527.64 803.282 1454.57 803.282ZM1454.57 504.552C1363.98 504.552 1290.28 578.733 1290.28 669.915C1290.28 761.101 1363.98 835.282 1454.57 835.282C1545.17 835.282 1618.87 761.101 1618.87 669.915C1618.87 578.733 1545.17 504.552 1454.57 504.552ZM1454.57 837.896C1362.55 837.896 1287.68 762.541 1287.68 669.915C1287.68 577.293 1362.55 501.938 1454.57 501.938C1546.6 501.938 1621.46 577.293 1621.46 669.915C1621.46 762.541 1546.6 837.896 1454.57 837.896ZM1455.59 469.931C1345.48 469.931 1255.9 559.644 1255.9 669.918C1255.9 780.19 1345.48 869.903 1455.59 869.903C1565.7 869.903 1655.27 780.19 1655.27 669.918C1655.27 559.644 1565.7 469.931 1455.59 469.931ZM1455.59 872.509C1344.04 872.509 1253.29 781.629 1253.29 669.918C1253.29 558.208 1344.04 467.324 1455.59 467.324C1567.13 467.324 1657.88 558.208 1657.88 669.918C1657.88 781.629 1567.13 872.509 1455.59 872.509ZM1455.59 435.323C1326.51 435.323 1221.5 541.018 1221.5 670.935C1221.5 800.851 1326.51 906.546 1455.59 906.546C1584.66 906.546 1689.67 800.851 1689.67 670.935C1689.67 541.018 1584.66 435.323 1455.59 435.323ZM1455.59 909.159C1325.08 909.159 1218.9 802.291 1218.9 670.935C1218.9 539.576 1325.08 432.71 1455.59 432.71C1586.09 432.71 1692.27 539.576 1692.27 670.935C1692.27 802.291 1586.09 909.159 1455.59 909.159ZM1454.57 400.704C1305.98 400.704 1185.09 521.93 1185.09 670.935C1185.09 819.939 1305.98 941.165 1454.57 941.165C1603.17 941.165 1724.06 819.939 1724.06 670.935C1724.06 521.93 1603.17 400.704 1454.57 400.704ZM1454.57 943.773C1304.55 943.773 1182.49 821.379 1182.49 670.935C1182.49 520.491 1304.55 398.097 1454.57 398.097C1604.6 398.097 1726.66 520.491 1726.66 670.935C1726.66 821.379 1604.6 943.773 1454.57 943.773ZM1454.57 364.059C1287.01 364.059 1150.7 501.268 1150.7 669.915C1150.7 838.566 1287.01 975.774 1454.57 975.774C1622.13 975.774 1758.45 838.566 1758.45 669.915C1758.45 501.268 1622.13 364.059 1454.57 364.059ZM1454.57 978.387C1285.58 978.387 1148.1 840.008 1148.1 669.915C1148.1 499.826 1285.58 361.447 1454.57 361.447C1623.56 361.447 1761.05 499.826 1761.05 669.915C1761.05 840.008 1623.56 978.387 1454.57 978.387ZM1455.36 327.872C1268.4 327.872 1116.31 480.959 1116.31 669.128C1116.31 857.3 1268.4 1010.39 1455.36 1010.39C1642.31 1010.39 1794.4 857.3 1794.4 669.128C1794.4 480.959 1642.31 327.872 1455.36 327.872ZM1455.36 1013C1266.97 1013 1113.71 858.74 1113.71 669.128C1113.71 479.516 1266.97 325.258 1455.36 325.258C1643.74 325.258 1797 479.516 1797 669.128C1797 858.74 1643.74 1013 1455.36 1013Z" fill="url(#paint2_linear)"/>
</g>
</g>
<defs>
<linearGradient id="paint0_linear" x1="1005" y1="726" x2="1054.76" y2="323.535" gradientUnits="userSpaceOnUse">
<stop stop-color="#171A1D"/>
<stop offset="1" stop-color="#171A1D" stop-opacity="0"/>
</linearGradient>
<linearGradient id="paint1_linear" x1="1035" y1="698.001" x2="873.89" y2="154.184" gradientUnits="userSpaceOnUse">
<stop stop-color="#171A1D"/>
<stop offset="1" stop-color="#171A1D" stop-opacity="0"/>
</linearGradient>
<linearGradient id="paint2_linear" x1="1216.43" y1="618.516" x2="1511.55" y2="391.125" gradientUnits="userSpaceOnUse">
<stop stop-color="#171A1D"/>
<stop offset="1" stop-color="#171A1D" stop-opacity="0"/>
</linearGradient>
</defs>
</svg>
