<svg width="139" height="36" viewBox="0 0 139 36" fill="none" xmlns="http://www.w3.org/2000/svg">
<path d="M44.4746 27.8185L46.1953 23.8221C48.0547 25.2097 50.5248 25.9313 52.967 25.9313C54.771 25.9313 55.9088 25.2375 55.9088 24.1829C55.8811 21.2411 45.1129 23.5446 45.0297 16.1623C45.0019 12.4156 48.3323 9.5293 53.0503 9.5293C55.8533 9.5293 58.6564 10.2231 60.6546 11.805L59.0449 15.8847C57.2132 14.7191 54.9375 13.8865 52.7728 13.8865C51.3018 13.8865 50.3305 14.5803 50.3305 15.4684C50.3582 18.3547 61.2097 16.7728 61.3207 23.8221C61.3207 27.652 58.0736 30.344 53.4111 30.344C49.9975 30.344 46.8614 29.5392 44.4746 27.8185Z" fill="white"/>
<path d="M110.499 22.3789C109.639 23.8776 108.029 24.9045 106.17 24.9045C103.422 24.9045 101.202 22.6842 101.202 19.9367C101.202 17.1891 103.422 14.9689 106.17 14.9689C108.029 14.9689 109.639 15.9957 110.499 17.4944L115.245 14.8579C113.469 11.694 110.055 9.5293 106.17 9.5293C100.425 9.5293 95.7622 14.1918 95.7622 19.9367C95.7622 25.6815 100.425 30.344 106.17 30.344C110.083 30.344 113.469 28.2071 115.245 25.0155L110.499 22.3789Z" fill="white"/>
<path d="M69.6462 0.898438H63.707V29.9558H69.6462V0.898438Z" fill="white"/>
<path d="M117.576 0.898438V29.9558H123.515V21.2414L130.565 29.9558H138.169L129.205 19.6039L137.503 9.94591H130.232L123.515 17.9665V0.898438H117.576Z" fill="white"/>
<path d="M87.2964 22.4344C86.4361 23.8498 84.6599 24.9045 82.6617 24.9045C79.9142 24.9045 77.6939 22.6842 77.6939 19.9367C77.6939 17.1891 79.9142 14.9689 82.6617 14.9689C84.6599 14.9689 86.4361 16.079 87.2964 17.5222V22.4344ZM87.2964 9.94559V12.3046C86.3251 10.6672 83.9106 9.5293 81.3851 9.5293C76.1675 9.5293 72.0601 14.1363 72.0601 19.9089C72.0601 25.6815 76.1675 30.344 81.3851 30.344C83.9106 30.344 86.3251 29.2062 87.2964 27.5687V29.9277H93.2356V9.94559H87.2964Z" fill="white"/>
<path d="M7.75696 22.4105C7.75696 24.4364 6.11954 26.0739 4.09357 26.0739C2.0676 26.0739 0.430176 24.4364 0.430176 22.4105C0.430176 20.3845 2.0676 18.7471 4.09357 18.7471H7.75696V22.4105Z" fill="#E01E5A"/>
<path d="M9.58936 22.4075C9.58936 20.3816 11.2268 18.7441 13.2527 18.7441C15.2787 18.7441 16.9161 20.3816 16.9161 22.4075V31.566C16.9161 33.592 15.2787 35.2294 13.2527 35.2294C11.2268 35.2294 9.58936 33.592 9.58936 31.566V22.4075Z" fill="#E01E5A"/>
<path d="M13.2513 7.69983C11.2253 7.69983 9.58789 6.06241 9.58789 4.03644C9.58789 2.01047 11.2253 0.373047 13.2513 0.373047C15.2773 0.373047 16.9147 2.01047 16.9147 4.03644V7.69983H13.2513Z" fill="#36C5F0"/>
<path d="M13.251 9.55957C15.277 9.55957 16.9144 11.197 16.9144 13.223C16.9144 15.2489 15.277 16.8864 13.251 16.8864H4.06476C2.03879 16.8864 0.401367 15.2489 0.401367 13.223C0.401367 11.197 2.03879 9.55957 4.06476 9.55957H13.251Z" fill="#36C5F0"/>
<path d="M27.9321 13.222C27.9321 11.196 29.5696 9.55859 31.5955 9.55859C33.6215 9.55859 35.2589 11.196 35.2589 13.222C35.2589 15.248 33.6215 16.8854 31.5955 16.8854H27.9321V13.222Z" fill="#2EB67D"/>
<path d="M26.1002 13.2227C26.1002 15.2486 24.4628 16.8861 22.4368 16.8861C20.4109 16.8861 18.7734 15.2486 18.7734 13.2227V4.03644C18.7734 2.01047 20.4109 0.373047 22.4368 0.373047C24.4628 0.373047 26.1002 2.01047 26.1002 4.03644V13.2227Z" fill="#2EB67D"/>
<path d="M22.4363 27.9023C24.4623 27.9023 26.0997 29.5398 26.0997 31.5657C26.0997 33.5917 24.4623 35.2291 22.4363 35.2291C20.4104 35.2291 18.7729 33.5917 18.7729 31.5657V27.9023H22.4363Z" fill="#ECB22E"/>
<path d="M22.4363 26.0719C20.4104 26.0719 18.7729 24.4345 18.7729 22.4085C18.7729 20.3825 20.4104 18.7451 22.4363 18.7451H31.6226C33.6485 18.7451 35.286 20.3825 35.286 22.4085C35.286 24.4345 33.6485 26.0719 31.6226 26.0719H22.4363Z" fill="#ECB22E"/>
</svg>
