<svg width="458" height="283" viewBox="0 0 458 283" fill="none" xmlns="http://www.w3.org/2000/svg">
<path d="M430 76C442.15 76 452 66.1503 452 54C452 41.8497 442.15 32 430 32C417.85 32 408 41.8497 408 54C408 66.1503 417.85 76 430 76Z" fill="#000000" stroke="#904185" stroke-linecap="square"/>
<path d="M435.962 54.2061C435.962 57.3542 433.41 59.9047 430.264 59.9047C429.194 59.9047 428.194 59.6102 427.339 59.0971L424.81 61.6238C426.336 62.7475 428.222 63.4122 430.264 63.4122C435.347 63.4122 439.47 59.2898 439.47 54.2061C439.47 52.1644 438.805 50.2786 437.681 48.7522L435.155 51.2789C435.668 52.1362 435.962 53.1365 435.962 54.2061ZM435.705 46.7797L433.176 49.3064C432.323 48.7976 431.327 48.5075 430.262 48.5075C427.113 48.5075 424.563 51.0602 424.563 54.2061C424.563 55.2713 424.855 56.2673 425.362 57.1204L422.835 59.6471C421.718 58.1228 421.058 56.2413 421.058 54.2061C421.058 49.1224 425.18 45 430.264 45C432.299 45 434.18 45.6604 435.705 46.7797Z" fill="#1FC5C9"/>
<path d="M442.319 44.9575C442.319 46.2826 441.245 47.3565 439.92 47.3565C438.595 47.3565 437.523 46.2826 437.523 44.9575C437.523 43.6325 438.597 42.5586 439.92 42.5586C441.243 42.5586 442.319 43.6325 442.319 44.9575Z" fill="#1FC5C9"/>
<path d="M423.355 63.9185C423.355 65.2435 422.281 66.3174 420.956 66.3174C419.631 66.3174 418.56 65.2435 418.56 63.9185C418.56 62.5934 419.633 61.5195 420.959 61.5195C422.284 61.5195 423.355 62.5956 423.355 63.9185Z" fill="#1FC5C9"/>
<path d="M92 221C105.807 221 117 209.807 117 196C117 182.193 105.807 171 92 171C78.1929 171 67 182.193 67 196C67 209.807 78.1929 221 92 221Z" fill="#000000" stroke="#904185" stroke-opacity="0.4" stroke-linecap="square"/>
<circle cx="92" cy="196" r="14" fill="#008DE4"/>
<path d="M94.1598 190.398H89.2239L88.8148 192.726L93.2689 192.731C95.4625 192.731 96.1112 193.542 96.0927 194.888C96.0832 195.577 95.7896 196.742 95.6628 197.12C95.3247 198.127 94.6304 199.277 92.0268 199.272L87.6971 199.27L87.2871 201.598H92.2121C93.9492 201.598 94.6886 201.393 95.4703 201.025C97.2047 200.21 98.2368 198.467 98.6501 196.193C99.2659 192.807 98.4991 190.398 94.1598 190.398Z" fill="white"/>
<path d="M87.0935 194.828C85.8006 194.828 85.6153 195.686 85.493 196.204C85.3328 196.883 85.2803 197.158 85.2803 197.158H90.3341C91.627 197.158 91.8123 196.3 91.9346 195.782C92.0948 195.103 92.1473 194.828 92.1473 194.828H87.0935Z" fill="white"/>
<path d="M34 149C52.2254 149 67 134.225 67 116C67 97.7746 52.2254 83 34 83C15.7746 83 1 97.7746 1 116C1 134.225 15.7746 149 34 149Z" fill="#000000" stroke="#904185" stroke-opacity="0.6" stroke-linecap="square"/>
<path d="M50.6565 126.598H42.77V115.746L34.0003 124.516L25.2306 115.746V126.598H17.3442H17.0918C20.6249 132.213 26.871 135.998 34.0003 135.998C41.1297 135.998 47.3757 132.276 50.9088 126.598H50.6565Z" fill="#4C4C4C"/>
<path d="M21.0662 122.435V105.779L34 118.713L46.9338 105.779V122.435H52.9275C53.6215 120.416 54 118.271 54 116C54 104.959 45.041 96 34 96C22.959 96 14 104.959 14 116C14 118.271 14.3785 120.416 15.0726 122.435H21.0662V122.435Z" fill="#FF6B01"/>
<path d="M438 177C448.493 177 457 168.493 457 158C457 147.507 448.493 139 438 139C427.507 139 419 147.507 419 158C419 168.493 427.507 177 438 177Z" fill="#000000" stroke="#9D458E" stroke-opacity="0.6" stroke-linecap="square"/>
<path d="M438.138 169.074C432.115 169.074 427.198 164.153 427.198 158.135C427.198 152.112 432.12 147.195 438.138 147.195C444.161 147.195 449.077 152.117 449.077 158.135C449.077 164.158 444.161 169.074 438.138 169.074Z" fill="url(#paint0_linear)"/>
<path d="M438 171.216C430.73 171.216 424.782 165.268 424.782 157.999C424.782 150.729 430.73 144.781 438 144.781C445.269 144.781 451.217 150.729 451.217 157.999C451.217 165.268 445.269 171.216 438 171.216ZM438 147.72C432.347 147.72 427.721 152.346 427.721 157.999C427.721 163.651 432.347 168.277 438 168.277C443.652 168.277 448.278 163.651 448.278 157.999C448.278 152.346 443.652 147.72 438 147.72Z" fill="black"/>
<path d="M437.695 161.579H443.422V164.443H440.043V166.866H437.104V164.518H433.579C433.579 163.562 433.434 162.61 433.654 161.729C433.729 161.289 434.24 160.848 434.611 160.407C435.712 159.086 436.813 157.764 437.99 156.442C438.431 155.927 438.871 155.486 439.387 154.9H433.88V152.036H437.109V149.613H439.973V151.961H443.497C443.497 152.918 443.642 153.869 443.422 154.75C443.347 155.191 442.836 155.631 442.466 156.072C441.364 157.394 440.263 158.715 439.086 160.037C438.646 160.553 438.205 161.063 437.695 161.579V161.579Z" fill="black"/>
<path d="M201.5 231C226.077 231 246 211.077 246 186.5C246 161.923 226.077 142 201.5 142C176.923 142 157 161.923 157 186.5C157 211.077 176.923 231 201.5 231Z" fill="#000000" stroke="#9D458E" stroke-opacity="0.6" stroke-linecap="square"/>
<path d="M186 191.408C191.867 194.528 197.99 197.793 202.718 200.32L219.3 191.408C213.296 200.338 208.294 207.772 202.718 216C197.133 207.791 190.965 198.733 186 191.408ZM186.638 188.945L202.737 180.344L218.626 188.881L202.746 197.492L186.638 188.945ZM202.718 177.589L186 186.4L202.645 162L219.3 186.455L202.718 177.589V177.589Z" fill="#76B15A"/>
<path d="M202.11 200.32L219.301 191.408C213.076 200.338 202.11 216 202.11 216V200.32ZM202.129 180.344L218.602 188.881L202.138 197.492L202.129 180.344V180.344ZM202.11 177.589L202.034 162L219.301 186.455L202.11 177.589Z" fill="#4D7E35"/>
<path d="M187.235 189.055L202.753 190.374L218.069 189L202.762 197.591L187.235 189.055Z" fill="#4D7E35"/>
<path d="M203.269 190.374L218.069 189L203.277 197.591L203.269 190.374V190.374Z" fill="#3E632C"/>
<path d="M149.5 74C169.658 74 186 57.6584 186 37.5C186 17.3416 169.658 1 149.5 1C129.342 1 113 17.3416 113 37.5C113 57.6584 129.342 74 149.5 74Z" fill="#000000" stroke="#9D458E" stroke-opacity="0.6" stroke-linecap="square"/>
<path fill-rule="evenodd" clip-rule="evenodd" d="M130 36.2834C130.201 35.1972 130.373 34.1042 130.61 33.0259C131.002 31.2436 131.662 29.5634 132.626 27.9375C135.29 31.43 137.909 34.8495 140.511 38.2819C141.389 39.4399 141.37 39.4543 140.366 40.4827C139.763 41.0999 139.18 41.7381 138.551 42.3265C138.186 42.6671 138.163 42.9604 138.397 43.3853C139.329 45.0785 140.561 46.5034 142.104 47.6635C142.283 47.7984 142.462 47.9341 142.713 48.1248C141.663 48.9304 140.665 49.7032 139.659 50.4658C138.972 50.9867 138.268 51.4849 137.585 52.0093C137.219 52.2889 136.913 52.3663 136.527 52.0067C133.539 49.2248 131.476 45.9044 130.595 41.8918C130.375 40.8905 130.197 39.8796 130 38.8732V36.2834Z" fill="white"/>
<path fill-rule="evenodd" clip-rule="evenodd" d="M150.719 18C151.806 18.2005 152.899 18.3799 153.981 18.6059C155.799 18.9855 157.493 19.6909 159.226 20.6748C155.255 23.5258 151.359 26.3217 147.386 29.174C146.514 28.3216 145.625 27.5001 144.796 26.6222C144.388 26.1899 144.057 26.1632 143.553 26.4473C141.709 27.4868 140.206 28.8897 138.942 30.7104C138.687 30.3922 138.468 30.1336 138.264 29.8633C137.181 28.426 136.112 26.9783 135.015 25.5514C134.72 25.1669 134.701 24.9017 135.05 24.5205C138.271 21.0015 142.261 18.9473 146.952 18.2065C147.394 18.1363 147.838 18.0688 148.281 18H150.719Z" fill="white"/>
<path fill-rule="evenodd" clip-rule="evenodd" d="M139.874 54.3326C143.776 51.4158 147.604 48.5542 151.629 45.5453C152.485 46.4776 153.353 47.3635 154.147 48.3112C154.629 48.8861 155.048 48.8511 155.642 48.5033C157.422 47.4618 158.9 46.1104 160.105 44.3047C160.739 45.1206 161.343 45.8828 161.93 46.6582C162.603 47.5464 163.233 48.468 163.934 49.3332C164.383 49.888 164.276 50.2518 163.809 50.7429C160.721 53.9871 156.976 56.0128 152.571 56.7446C148.233 57.4653 144.122 56.6614 140.243 54.6175C140.134 54.56 140.045 54.466 139.874 54.3326" fill="white"/>
<path fill-rule="evenodd" clip-rule="evenodd" d="M156.297 26.8973C158.14 25.5224 159.895 24.232 161.625 22.9103C162.038 22.5948 162.266 22.8296 162.528 23.0683C164.306 24.6883 165.762 26.5582 166.851 28.7052C168.417 31.7928 169.168 35.078 168.967 38.5286C168.796 41.4803 168.034 44.2957 166.465 47.0154C165.679 45.9882 164.946 45.0391 164.222 44.0832C162.202 41.4173 160.193 38.744 158.162 36.0868C157.88 35.7172 157.841 35.4893 158.209 35.1377C158.996 34.3848 159.709 33.5537 160.489 32.7934C160.87 32.4225 160.876 32.1066 160.636 31.6616C159.73 29.982 158.507 28.5839 156.997 27.4285C156.798 27.276 156.598 27.1259 156.297 26.8973" fill="white"/>
<path d="M276 88C292.569 88 306 74.5685 306 58C306 41.4315 292.569 28 276 28C259.431 28 246 41.4315 246 58C246 74.5685 259.431 88 276 88Z" fill="#000000" stroke="#9D458E" stroke-opacity="0.4" stroke-linecap="square"/>
<path d="M274.674 57.3787L287.44 64.8028C287.543 64.8654 287.66 64.8991 287.78 64.9005C287.899 64.9019 288.017 64.871 288.121 64.8108C288.225 64.7506 288.311 64.6634 288.371 64.5581C288.431 64.4528 288.462 64.3333 288.461 64.2118V50.5354C288.463 50.4136 288.432 50.2937 288.372 50.1882C288.313 50.0827 288.226 49.9954 288.122 49.9355C288.017 49.8756 287.899 49.8453 287.779 49.8478C287.659 49.8503 287.542 49.8854 287.44 49.9495L274.674 57.3787Z" fill="#31CB9E"/>
<path d="M287.171 46.6617L278.444 40.1449C278.354 40.0745 278.247 40.0279 278.135 40.0092C278.022 39.9905 277.906 40.0003 277.798 40.0378C277.69 40.0752 277.593 40.1391 277.515 40.2238C277.437 40.3085 277.381 40.4114 277.351 40.5234L274.165 55.0396L287.095 47.7815C287.193 47.7301 287.277 47.6539 287.338 47.5601C287.399 47.4663 287.435 47.3581 287.442 47.2461C287.45 47.134 287.429 47.0219 287.382 46.9204C287.334 46.8189 287.262 46.7316 287.171 46.6669" fill="#31CB9E"/>
<path d="M278.434 74.603L287.171 68.0863C287.262 68.0207 287.334 67.9327 287.382 67.8308C287.43 67.7288 287.451 67.6162 287.444 67.5036C287.436 67.391 287.401 67.2821 287.341 67.1872C287.281 67.0923 287.198 67.0145 287.1 66.9613L274.165 59.7031L277.351 74.2194C277.378 74.3322 277.432 74.4365 277.508 74.5231C277.584 74.6096 277.679 74.6757 277.787 74.7152C277.894 74.7548 278.009 74.7667 278.122 74.7498C278.235 74.733 278.343 74.6879 278.434 74.6186" fill="#31CB9E"/>
<path d="M271.356 57.1146L274.675 41.3489C274.701 41.2183 274.687 41.083 274.636 40.9603C274.585 40.8376 274.5 40.733 274.39 40.6601C274.28 40.5872 274.152 40.5491 274.02 40.5508C273.889 40.5525 273.762 40.5939 273.654 40.6697L265.152 47.2902C264.936 47.4579 264.762 47.6738 264.642 47.9211C264.523 48.1684 264.461 48.4404 264.462 48.7159V65.5133C264.457 65.7931 264.517 66.0702 264.637 66.3224C264.756 66.5745 264.933 66.7946 265.152 66.9649L273.613 73.5594C273.721 73.6352 273.848 73.6766 273.98 73.6783C274.111 73.68 274.239 73.6419 274.349 73.569C274.459 73.4961 274.544 73.3916 274.595 73.2689C274.646 73.1462 274.66 73.0109 274.634 72.8803L271.356 57.1146Z" fill="#31CB9E"/>
<path d="M358 152C375.121 152 389 138.121 389 121C389 103.879 375.121 90 358 90C340.879 90 327 103.879 327 121C327 138.121 340.879 152 358 152Z" fill="#000000" stroke="#9D458E" stroke-opacity="0.6" stroke-linecap="square"/>
<path d="M344 111.081L354.908 116.149V137L344 131.932V111.081V111.081ZM360.509 105L344.524 110.583L355.334 115.683L371.269 110.068L360.509 105ZM360.214 114.541V127.299L371.564 131.643V110.534L360.214 114.541Z" fill="url(#paint1_linear)"/>
<path d="M318.5 282C337.002 282 352 267.002 352 248.5C352 229.998 337.002 215 318.5 215C299.998 215 285 229.998 285 248.5C285 267.002 299.998 282 318.5 282Z" fill="#000000" stroke="#9D458E" stroke-opacity="0.4" stroke-linecap="square"/>
<path d="M336.286 245.255C336.286 239.231 331.327 234.348 325.21 234.348H316.455L322.421 239.446H325.21C328.462 239.446 331.108 242.052 331.108 245.255C331.108 248.457 328.462 251.063 325.21 251.063H316.455L328.387 261.261H336.286L329.383 255.36C333.432 253.737 336.286 249.824 336.286 245.255V245.255Z" fill="#2CD7A3"/>
<path d="M306.077 250.354C306.077 247.151 308.724 244.546 311.975 244.546H320.73L308.798 234.348H300.899L307.802 240.248C303.753 241.871 300.898 245.785 300.898 250.354C300.898 256.378 305.858 261.261 311.975 261.261H320.73L314.764 256.162H311.975C308.723 256.162 306.077 253.556 306.077 250.354Z" fill="#2872FE"/>
<defs>
<linearGradient id="paint0_linear" x1="430.651" y1="165.621" x2="445.753" y2="150.519" gradientUnits="userSpaceOnUse">
<stop stop-color="#CF8724"/>
<stop offset="1" stop-color="#FDCE58"/>
</linearGradient>
<linearGradient id="paint1_linear" x1="344.615" y1="132.393" x2="364.31" y2="115.249" gradientUnits="userSpaceOnUse">
<stop stop-color="#BEEA2E"/>
<stop offset="1" stop-color="#52BA00"/>
</linearGradient>
</defs>
</svg>
